<svg width="747" height="736" viewBox="0 0 747 736" fill="none" xmlns="http://www.w3.org/2000/svg">
<ellipse cx="378.5" cy="368.48" rx="360.5" ry="354.705" fill="#E38683"/>
<ellipse cx="359.5" cy="282.878" rx="182.5" ry="179.566" fill="#EFE597"/>
<path d="M738.5 339.454C732.9 176.123 607.167 85.1095 545 60.0194C478.167 64.7751 361.5 191.373 347 339.454C326.323 550.62 470.5 662.673 531 691.699C602.5 642.339 745.82 552.966 738.5 339.454Z" fill="#98BA93" stroke="black"/>
<path d="M187 294.686C247.8 272.252 325.333 285.338 356.5 294.686C349.333 326.827 341.7 409.411 368.5 482.615C395.3 555.819 486.333 654.146 528.5 694.159C528.5 694.159 372.651 799.899 142 642.503C18 557.886 18 428.499 18 391.11C49 368.316 126.2 317.119 187 294.686Z" fill="#95CDE8" stroke="black"/>
<path d="M577.827 59.6914L559.16 48.2123L553.327 45.9165C498.493 16.0708 436.66 0 373.66 0C168.327 0 0.32666 165.299 0.32666 367.332C0.32666 375.367 0.32666 382.255 1.49333 390.29V396.03L3.82666 421.284L4.99333 420.136C7.32666 437.355 10.8267 453.425 15.4933 468.348C20.16 485.567 27.16 502.785 34.16 520.004C39.9933 532.631 45.8267 544.11 52.8267 555.589L56.3267 562.477L65.66 576.252C77.3267 592.323 88.9933 607.246 104.16 622.168C122.827 641.683 143.827 658.902 165.993 672.676L167.16 673.824L176.493 679.564L186.993 686.451C242.993 718.593 307.16 735.812 373.66 735.812C428.493 735.812 480.993 724.333 529.993 702.522L535.827 700.226L555.66 691.043H554.493C563.827 686.451 571.993 680.712 581.327 674.972C603.493 661.197 623.327 643.979 641.993 624.464L643.16 623.316C655.993 609.541 667.66 595.766 678.16 581.991C680.493 578.548 682.827 576.252 685.16 572.808C689.827 564.773 695.66 556.737 700.327 548.702C704.993 540.667 709.66 531.483 714.327 521.152C722.493 505.081 728.327 487.863 732.993 470.644C737.66 454.573 741.16 437.355 743.493 418.988C745.827 401.769 746.993 385.698 746.993 369.628C746.993 243.357 682.827 127.425 577.82 59.6914H577.827ZM23.6667 367.332C23.6667 177.92 181.16 22.9582 373.667 22.9582C427.333 22.9582 479.833 35.5853 527.667 58.5435C526.5 59.6914 524.167 60.8393 523 61.9873C519.5 64.2831 517.167 65.431 513.667 67.7268C507.833 71.1706 502 74.6143 497.333 78.058C493.833 80.3538 491.5 82.6497 488 84.9455C482.167 89.5371 477.5 92.9809 471.667 97.5725C469.333 99.8684 467 101.016 464.667 103.312C458.833 107.904 454.167 112.495 448.333 118.235C420.333 104.46 390 97.5725 358.5 97.5725C247.667 97.5725 157.833 184.814 156.66 293.859C151.993 295.007 148.493 296.155 143.827 298.451C141.493 299.598 139.16 300.746 136.827 300.746C132.16 303.042 127.493 304.19 122.827 306.486C120.493 307.634 118.16 308.782 114.66 309.93C109.993 312.226 106.493 313.373 101.827 315.669C99.4933 316.817 97.16 317.965 93.66 319.113C90.16 321.409 85.4933 323.705 81.9933 326C79.66 327.148 77.3267 328.296 74.9933 330.592C70.3267 332.888 66.8267 336.332 62.16 338.628C59.8267 339.775 57.4933 340.923 56.3267 343.219C51.66 346.663 45.8267 350.107 41.16 354.698L38.8267 356.994C34.16 359.29 29.4933 363.882 23.66 367.325L23.6667 367.332ZM180 285.83C184.667 192.849 262.833 119.376 358.507 119.376C384.173 119.376 408.673 125.116 432.007 134.299C430.84 135.447 429.673 136.595 429.673 137.743C428.507 138.891 427.34 140.039 427.34 141.187C426.173 142.335 425.007 144.63 423.84 145.778C421.507 149.222 418.007 152.666 415.673 154.962C414.507 156.109 413.34 158.405 412.173 159.553C411.007 160.701 409.84 161.849 408.673 164.145C406.34 167.589 404.007 169.884 401.673 173.328C400.507 175.624 399.34 177.92 397.007 179.068C395.84 180.216 395.84 181.364 394.673 182.511C392.34 185.955 391.173 188.251 388.84 191.695C387.673 193.991 385.34 196.286 384.173 199.73C383.007 200.878 383.007 202.026 381.84 203.174C380.673 205.47 378.34 208.913 377.173 211.209C376.007 213.505 373.673 216.949 372.507 219.245C372.507 220.393 371.34 221.54 371.34 222.688C370.173 224.984 370.173 226.132 369.007 228.428C369.007 229.576 367.84 230.724 367.84 231.872C366.673 234.168 365.507 237.611 364.34 239.907C364.34 241.055 363.173 242.203 363.173 244.499C362.007 246.795 360.84 250.238 359.673 252.534V253.682C358.507 255.978 357.34 258.274 357.34 260.569C357.34 261.717 356.173 264.013 356.173 265.161C355.007 268.605 353.84 270.901 353.84 274.344C352.673 276.64 352.673 278.936 351.507 281.232C349.173 281.232 345.673 280.084 343.34 280.084C341.007 280.084 337.507 278.936 335.173 278.936C332.84 278.936 331.673 277.788 329.34 277.788C327.007 277.788 324.673 277.788 322.34 276.64H318.84C316.507 276.64 314.173 275.492 311.84 275.492H307.173H299.007H290.84H288.507H283.84H274.507H264.007H260.507H251.173C247.673 275.492 243.007 275.492 239.507 276.64H236.007C233.673 276.64 231.34 276.64 229.007 277.788C225.507 277.788 220.84 278.936 217.34 278.936C216.173 278.936 213.84 278.936 212.673 280.084C210.34 280.084 209.173 281.232 206.84 281.232C202.173 282.38 198.673 282.38 194.007 283.528C191.673 283.528 190.507 284.676 188.173 284.676C187.007 284.676 185.84 285.824 184.673 285.824C182.34 284.676 181.173 284.676 180.007 285.824L180 285.83ZM27.1733 414.396C26.0067 409.805 26.0067 404.065 26.0067 399.473L40.0067 385.698C43.5067 383.403 45.84 381.107 49.34 377.663C51.6733 375.367 54.0067 373.071 57.5067 370.776C61.0067 368.48 63.34 366.184 66.84 363.888C69.1733 361.592 72.6733 360.444 75.0067 358.149L85.5067 351.261C87.84 348.965 91.34 347.817 93.6733 345.522C97.1733 343.226 100.673 342.078 104.173 339.782C106.507 338.634 110.007 336.338 112.34 335.19C115.84 332.895 119.34 331.747 124.007 329.451C126.34 328.303 129.84 327.155 132.173 326.007C136.84 323.711 140.34 322.563 145.007 320.267L152.007 316.824L173.007 309.936C180.007 307.64 187.007 305.345 195.173 304.197C197.507 304.197 199.84 303.049 202.173 303.049C206.84 301.901 212.673 300.753 217.34 299.605C219.673 299.605 223.173 298.457 225.507 298.457C230.173 297.309 234.84 297.309 239.507 296.161C241.84 296.161 245.34 296.161 247.673 295.013C252.34 295.013 257.007 293.865 261.673 293.865H271.007H285.007H294.34C299.007 293.865 303.673 293.865 307.173 295.013C310.673 295.013 313.007 296.161 316.507 296.161C321.173 296.161 324.673 297.309 329.34 297.309C332.84 297.309 336.34 298.457 338.673 298.457C341.007 298.457 343.34 299.605 344.507 299.605C344.507 301.901 343.34 303.049 343.34 305.345C343.34 307.64 342.173 311.084 342.173 313.38C341.007 317.972 341.007 321.415 339.84 326.007C339.84 328.303 338.673 331.747 338.673 334.042C338.673 338.634 337.507 343.226 337.507 347.817V354.705C337.507 361.592 336.34 368.48 336.34 375.367V389.142V390.29H335.173C327.007 391.438 317.673 391.438 309.507 392.586C308.34 392.586 306.007 392.586 304.84 393.734C296.673 394.882 288.507 396.03 279.173 398.325C278.007 398.325 276.84 399.473 275.673 399.473C267.507 401.769 259.34 404.065 250.007 406.361C248.84 406.361 247.673 407.509 247.673 407.509C238.34 409.805 230.173 413.248 222.007 416.692C213.84 420.136 205.673 423.58 198.673 427.023L191.673 430.467C187.007 432.763 181.173 435.059 176.507 438.502C174.173 439.65 170.673 441.946 168.34 443.094C163.673 445.39 159.007 448.834 155.507 451.129C152.007 453.425 149.673 454.573 147.34 456.869C143.84 459.165 139.173 462.609 135.673 466.052C133.34 468.348 129.84 470.644 127.507 472.94C124.007 476.384 120.507 478.679 115.84 482.123C113.507 484.419 110.007 486.715 107.673 489.011L97.1733 499.342C94.84 501.638 92.5067 505.081 89.0067 507.377C85.5067 510.821 82.0067 514.265 79.6733 518.856C75.0067 524.596 72.6733 528.04 70.34 530.335L66.84 533.779C62.1733 525.744 58.6733 517.708 54.0067 508.525C47.0067 493.602 41.1733 477.531 36.5067 460.313C33.0067 446.538 29.5067 430.467 27.1733 414.396ZM120.507 606.091C106.507 590.02 93.6733 573.949 82.0067 557.879C82.0067 556.731 80.84 556.731 80.84 555.583C83.1733 553.287 84.34 550.991 86.6733 548.695C89.0067 545.252 91.34 541.808 93.6733 539.512C96.0067 536.068 99.5067 532.625 103.007 529.181C105.34 526.885 107.673 523.441 110.007 521.146C113.507 517.702 117.007 515.406 119.34 511.962C121.673 509.666 124.007 507.371 127.507 505.075C131.007 501.631 134.507 499.335 138.007 495.891C140.34 493.596 143.84 491.3 146.173 489.004C149.673 485.56 154.34 483.264 157.84 480.969C160.173 478.673 163.673 477.525 166.007 475.229C170.673 472.933 174.173 469.489 178.84 467.194C181.173 466.046 183.507 463.75 187.007 462.602C191.673 460.306 197.507 456.862 202.173 454.567L209.173 451.123C216.173 447.679 224.34 444.235 231.34 440.792C240.673 437.348 250.007 433.904 259.34 431.608C262.84 430.46 265.173 430.46 268.673 429.313C274.507 428.165 281.507 425.869 287.34 424.721C290.84 423.573 295.507 423.573 299.007 422.425C304.84 421.277 310.673 420.129 316.507 420.129C321.173 420.129 324.673 418.981 329.34 418.981C332.84 418.981 336.34 417.833 341.007 417.833C341.007 421.277 342.173 425.869 342.173 429.313C344.507 446.531 348.007 463.75 353.84 480.969C353.84 483.264 355.007 484.412 355.007 485.56C356.173 491.3 358.507 495.891 359.673 501.631V502.779C359.673 502.779 358.507 502.779 358.507 503.927L334.007 514.258C332.84 515.406 331.673 515.406 330.507 516.554C322.34 519.998 315.34 524.589 307.173 529.181C306.007 530.329 304.84 530.329 303.673 531.477C295.507 536.068 288.507 540.66 281.507 546.4C280.34 546.4 280.34 547.548 279.173 547.548C264.007 557.879 250.007 570.506 236.007 583.133L233.673 585.429C227.84 591.168 222.007 598.056 216.173 604.943C215.007 606.091 213.84 607.239 213.84 608.387C208.007 615.274 203.34 622.162 197.507 629.049C196.34 630.197 195.173 631.345 195.173 632.493C190.507 639.38 184.673 646.268 181.173 654.303C181.173 654.303 181.173 655.451 180.007 655.451C157.84 639.38 139.173 623.31 120.507 606.091ZM373.68 711.699C311.847 711.699 252.347 695.628 199.84 665.782C202.173 662.339 203.34 658.895 205.673 656.599L212.673 646.268C216.173 641.676 219.673 637.085 223.173 632.493C225.507 629.049 227.84 626.753 230.173 623.31C234.84 618.718 238.34 614.126 243.007 608.387L250.007 601.499C257.007 594.612 264.007 587.724 271.007 581.985C278.007 576.245 286.173 569.358 294.34 563.618C296.673 561.322 300.173 560.175 302.507 559.027C308.34 555.583 314.173 552.139 318.84 548.695C322.34 546.4 325.84 545.252 329.34 542.956C335.173 539.512 339.84 537.216 345.673 534.92C349.173 532.625 352.673 531.477 357.34 530.329C360.84 529.181 364.34 526.885 367.84 525.737C369.007 528.033 370.173 530.329 370.173 531.477C378.34 549.843 387.673 567.062 399.34 583.133C411.007 600.351 425.007 617.57 441.34 634.789C460.007 654.303 481.007 671.522 503.173 685.297C504.34 686.445 505.507 686.445 506.673 687.593C463.507 702.516 419.173 711.699 373.673 711.699H373.68ZM720.187 414.396C717.853 430.467 714.353 446.538 709.687 462.609C705.02 478.679 699.187 494.75 692.187 510.821C687.52 521.152 682.853 529.187 679.353 536.075C674.687 542.962 670.02 550.998 665.353 557.885C663.02 560.181 661.853 563.625 659.52 565.921C650.187 579.696 638.52 592.323 626.853 604.95L625.687 606.098C608.187 624.464 588.353 639.387 568.52 653.162C555.687 661.197 544.02 668.085 531.187 674.972C530.02 674.972 530.02 673.824 528.853 673.824C524.187 671.529 519.52 668.085 514.853 664.641C493.853 650.866 474.02 634.795 456.52 616.429C441.353 601.506 428.52 585.435 418.02 568.216C407.52 553.294 399.353 537.223 391.187 520.004C388.853 514.265 386.52 509.673 384.187 503.933C380.687 495.898 377.187 486.715 374.853 477.531C374.853 476.384 373.687 474.088 373.687 471.792C369.02 456.869 365.52 440.798 363.187 423.58C362.02 416.692 362.02 409.805 360.853 401.769C359.687 392.586 359.687 384.551 359.687 376.515C359.687 369.628 359.687 361.592 360.853 354.705C362.02 334.042 365.52 314.528 370.187 295.013C372.52 288.126 373.687 280.091 376.02 273.203C379.52 264.02 383.02 254.836 386.52 245.653C402.853 205.476 427.353 168.743 458.853 136.602C465.853 129.714 472.853 122.827 481.02 115.939C483.353 113.643 486.853 111.347 489.187 110.2C493.853 105.608 499.687 102.164 504.353 97.5725L514.853 90.6851C519.52 87.2413 524.187 83.7976 530.02 81.5018C533.52 79.2059 537.02 76.9101 541.687 75.7622C546.353 73.4664 549.853 71.1706 554.52 68.8747C658.353 134.306 723.693 246.795 723.693 367.332C723.693 382.255 722.527 398.325 720.193 414.396H720.187Z" fill="#222222"/>
</svg>
