<svg width="500" height="500" viewBox="0 0 500 500" fill="none" xmlns="http://www.w3.org/2000/svg">
<g clip-path="url(#clip0_102_86)">
<path d="M23.2353 0C31.5909 3.15502 37.8476 7.85435 44.0998 12.5498C53.9804 19.9718 63.8574 27.3869 83.4029 27.3869C102.948 27.3869 112.818 19.9648 122.699 12.5498C128.958 7.85042 135.215 3.15127 143.563 0H189.595C197.951 3.15502 204.208 7.85435 210.467 12.5498C220.34 19.9718 230.217 27.3869 249.763 27.3869C269.308 27.3869 279.185 19.9648 289.059 12.5498C295.319 7.85042 301.582 3.15127 309.931 0H355.963C364.318 3.15502 370.575 7.85435 376.827 12.5498C386.708 19.9718 396.578 27.3869 416.123 27.3869C435.668 27.3869 445.545 19.9648 455.426 12.5498C461.679 7.85042 467.942 3.15127 476.291 0H499.303V3.84525C479.765 3.84525 469.888 11.2673 460.007 18.6788C449.086 26.8783 438.171 35.0742 416.116 35.0742C394.068 35.0742 383.146 26.8747 372.225 18.6788C362.351 11.2637 352.474 3.84525 332.929 3.84525C313.383 3.84525 303.513 11.2673 293.633 18.6788C282.711 26.8783 271.797 35.0742 249.742 35.0742C227.686 35.0742 216.772 26.8747 205.85 18.6788C195.977 11.2637 186.1 3.84525 166.554 3.84525C147.009 3.84525 137.132 11.2673 127.258 18.6788C116.337 26.8783 105.415 35.0742 83.3672 35.0742C61.3119 35.0742 50.3975 26.8747 39.4759 18.6788C29.5954 11.2637 19.7184 3.84525 0.180038 3.84525V0L23.2353 0Z" fill="white" fill-opacity="0.1"/>
<path d="M0.222824 27.3904C22.271 27.3904 33.1854 35.5899 44.107 43.7858C53.9875 51.2078 63.8645 58.6229 83.41 58.6229C102.955 58.6229 112.825 51.2009 122.706 43.7858C133.627 35.5863 144.542 27.3904 166.597 27.3904C188.652 27.3904 199.567 35.5899 210.488 43.7858C220.362 51.2078 230.239 58.6229 249.784 58.6229C269.33 58.6229 279.207 51.2009 289.08 43.7858C300.002 35.5863 310.923 27.3904 332.971 27.3904C355.027 27.3904 365.941 35.5899 376.863 43.7858C386.743 51.2078 396.62 58.6229 416.159 58.6229C435.704 58.6229 445.581 51.2009 455.462 43.7858C466.383 35.5863 477.298 27.3904 499.346 27.3904V35.074C479.808 35.074 469.931 42.496 460.05 49.9111C449.128 58.1106 438.214 66.3065 416.159 66.3065C394.111 66.3065 383.189 58.107 372.267 49.9111C362.394 42.4891 352.517 35.074 332.971 35.074C313.426 35.074 303.556 42.496 293.676 49.9111C282.754 58.1106 271.84 66.3065 249.784 66.3065C227.729 66.3065 216.815 58.107 205.893 49.9111C196.02 42.4891 186.143 35.074 166.597 35.074C147.052 35.074 137.175 42.496 127.301 49.9111C116.38 58.1106 105.458 66.3065 83.41 66.3065C61.3547 66.3065 50.4403 58.107 39.5187 49.9111C29.6382 42.4891 19.7612 35.074 0.222824 35.074V27.3904Z" fill="white" fill-opacity="0.1"/>
<path d="M0.222824 58.6265C22.271 58.6265 33.1854 66.826 44.107 75.0219C53.9875 82.437 63.8645 89.8554 83.41 89.8554C102.955 89.8554 112.825 82.4334 122.706 75.0219C133.627 66.8224 144.542 58.6265 166.597 58.6265C188.652 58.6265 199.567 66.826 210.488 75.0219C220.362 82.437 230.239 89.8554 249.784 89.8554C269.33 89.8554 279.207 82.4334 289.08 75.0219C300.002 66.8224 310.923 58.6265 332.971 58.6265C355.027 58.6265 365.941 66.826 376.863 75.0219C386.743 82.437 396.62 89.8554 416.159 89.8554C435.704 89.8554 445.581 82.4334 455.462 75.0219C466.383 66.8224 477.298 58.6265 499.346 58.6265V66.3101C479.808 66.3101 469.931 73.7321 460.05 81.1472C449.128 89.3466 438.214 97.5425 416.159 97.5425C394.111 97.5425 383.189 89.3431 372.267 81.1472C362.394 73.7251 352.517 66.3101 332.971 66.3101C313.426 66.3101 303.556 73.7321 293.676 81.1472C282.754 89.3466 271.84 97.5425 249.784 97.5425C227.729 97.5425 216.815 89.3431 205.893 81.1472C196.02 73.7251 186.143 66.3101 166.597 66.3101C147.052 66.3101 137.175 73.7321 127.301 81.1472C116.38 89.3466 105.458 97.5425 83.41 97.5425C61.3547 97.5425 50.4403 89.3431 39.5187 81.1472C29.6382 73.7251 19.7612 66.3101 0.222824 66.3101V58.6265Z" fill="white" fill-opacity="0.1"/>
<path d="M0.222824 89.8617C22.271 89.8617 33.1854 98.0611 44.107 106.257C53.9875 113.679 63.8645 121.094 83.41 121.094C102.955 121.094 112.825 113.672 122.706 106.257C133.627 98.0576 144.542 89.8617 166.597 89.8617C188.652 89.8617 199.567 98.0611 210.488 106.257C220.362 113.679 230.239 121.094 249.784 121.094C269.33 121.094 279.207 113.672 289.08 106.257C300.002 98.0576 310.923 89.8617 332.971 89.8617C355.027 89.8617 365.941 98.0611 376.863 106.257C386.743 113.679 396.62 121.094 416.159 121.094C435.704 121.094 445.581 113.672 455.462 106.257C466.383 98.0576 477.298 89.8617 499.346 89.8617V97.5522C479.808 97.5522 469.931 104.974 460.05 112.386C449.128 120.585 438.214 128.788 416.159 128.788C394.111 128.788 383.189 120.582 372.267 112.386C362.394 104.971 352.517 97.5522 332.971 97.5522C313.426 97.5522 303.556 104.974 293.676 112.386C282.754 120.585 271.84 128.788 249.784 128.788C227.729 128.788 216.815 120.582 205.893 112.386C196.02 104.971 186.143 97.5522 166.597 97.5522C147.052 97.5522 137.175 104.974 127.301 112.386C116.38 120.585 105.458 128.788 83.41 128.788C61.3547 128.788 50.4403 120.582 39.5187 112.386C29.6382 104.971 19.7612 97.5522 0.222824 97.5522V89.8617Z" fill="white" fill-opacity="0.1"/>
<path d="M0.222824 121.098C22.271 121.098 33.1854 129.297 44.107 137.493C53.9875 144.915 63.8645 152.33 83.41 152.33C102.955 152.33 112.825 144.908 122.706 137.493C133.627 129.294 144.542 121.098 166.597 121.098C188.652 121.098 199.567 129.297 210.488 137.493C220.362 144.915 230.239 152.33 249.784 152.33C269.33 152.33 279.207 144.908 289.08 137.493C300.002 129.294 310.923 121.098 332.971 121.098C355.027 121.098 365.941 129.297 376.863 137.493C386.743 144.915 396.62 152.33 416.159 152.33C435.704 152.33 445.581 144.908 455.462 137.493C466.383 129.294 477.298 121.098 499.346 121.098V128.788C479.808 128.788 469.931 136.203 460.05 143.622C449.128 151.821 438.214 160.017 416.159 160.017C394.111 160.017 383.189 151.818 372.267 143.622C362.394 136.2 352.517 128.788 332.971 128.788C313.426 128.788 303.556 136.203 293.676 143.622C282.754 151.821 271.84 160.017 249.784 160.017C227.729 160.017 216.815 151.818 205.893 143.622C196.02 136.2 186.143 128.788 166.597 128.788C147.052 128.788 137.175 136.203 127.301 143.622C116.38 151.821 105.458 160.017 83.41 160.017C61.3547 160.017 50.4403 151.818 39.5187 143.622C29.6382 136.2 19.7612 128.788 0.222824 128.788V121.098Z" fill="white" fill-opacity="0.1"/>
<path d="M0.222824 152.343C22.271 152.343 33.1854 160.542 44.107 168.738C53.9875 176.153 63.8645 183.572 83.41 183.572C102.955 183.572 112.825 176.15 122.706 168.738C133.627 160.539 144.542 152.343 166.597 152.343C188.645 152.343 199.567 160.542 210.488 168.738C220.362 176.153 230.239 183.572 249.784 183.572C269.33 183.572 279.207 176.15 289.08 168.738C300.002 160.539 310.923 152.343 332.971 152.343C355.027 152.343 365.941 160.542 376.863 168.738C386.743 176.153 396.613 183.572 416.159 183.572C435.704 183.572 445.581 176.15 455.462 168.738C466.383 160.539 477.298 152.343 499.346 152.343V160.026C479.808 160.026 469.931 167.448 460.05 174.863C449.128 183.063 438.214 191.259 416.159 191.259C394.111 191.259 383.189 183.059 372.267 174.863C362.394 167.441 352.517 160.026 332.971 160.026C313.426 160.026 303.556 167.448 293.676 174.863C282.754 183.063 271.84 191.259 249.784 191.259C227.729 191.259 216.815 183.059 205.893 174.863C196.02 167.441 186.143 160.026 166.597 160.026C147.052 160.026 137.175 167.448 127.301 174.863C116.38 183.063 105.458 191.259 83.41 191.259C61.3547 191.259 50.4403 183.059 39.5187 174.863C29.6382 167.441 19.7612 160.026 0.222824 160.026V152.343Z" fill="white" fill-opacity="0.1"/>
<path d="M0.222824 183.57C22.271 183.57 33.1854 191.769 44.107 199.965C53.9875 207.387 63.8645 214.802 83.41 214.802C102.955 214.802 112.825 207.38 122.706 199.965C133.627 191.766 144.542 183.57 166.597 183.57C188.652 183.57 199.567 191.769 210.488 199.965C220.362 207.387 230.239 214.802 249.784 214.802C269.33 214.802 279.207 207.38 289.08 199.965C300.002 191.766 310.923 183.57 332.971 183.57C355.027 183.57 365.941 191.769 376.863 199.965C386.743 207.387 396.62 214.802 416.159 214.802C435.704 214.802 445.581 207.38 455.462 199.965C466.383 191.766 477.298 183.57 499.346 183.57V191.26C479.808 191.26 469.931 198.682 460.05 206.094C449.128 214.293 438.214 222.496 416.159 222.496C394.111 222.496 383.189 214.29 372.267 206.094C362.394 198.679 352.517 191.26 332.971 191.26C313.426 191.26 303.556 198.682 293.676 206.094C282.754 214.293 271.84 222.496 249.784 222.496C227.729 222.496 216.815 214.29 205.893 206.094C196.02 198.679 186.143 191.26 166.597 191.26C147.052 191.26 137.175 198.682 127.301 206.094C116.38 214.293 105.458 222.496 83.41 222.496C61.3547 222.496 50.4403 214.29 39.5187 206.094C29.6382 198.679 19.7612 191.26 0.222824 191.26V183.57Z" fill="white" fill-opacity="0.1"/>
<path d="M0.222824 214.806C22.271 214.806 33.1854 223.005 44.107 231.201C53.9875 238.623 63.8645 246.038 83.41 246.038C102.955 246.038 112.825 238.616 122.706 231.201C133.627 223.002 144.542 214.806 166.597 214.806C188.652 214.806 199.567 223.005 210.488 231.201C220.362 238.623 230.239 246.038 249.784 246.038C269.33 246.038 279.207 238.616 289.08 231.201C300.002 223.002 310.923 214.806 332.971 214.806C355.027 214.806 365.941 223.005 376.863 231.201C386.743 238.623 396.62 246.038 416.159 246.038C435.704 246.038 445.581 238.616 455.462 231.201C466.383 223.002 477.298 214.806 499.346 214.806V222.496C479.808 222.496 469.931 229.911 460.05 237.33C449.128 245.529 438.214 253.725 416.159 253.725C394.111 253.725 383.189 245.526 372.267 237.33C362.394 229.908 352.517 222.496 332.971 222.496C313.426 222.496 303.556 229.911 293.676 237.33C282.754 245.529 271.84 253.725 249.784 253.725C227.729 253.725 216.815 245.526 205.893 237.33C196.02 229.908 186.143 222.496 166.597 222.496C147.052 222.496 137.175 229.911 127.301 237.33C116.38 245.529 105.458 253.725 83.41 253.725C61.3547 253.725 50.4403 245.526 39.5187 237.33C29.6382 229.908 19.7612 222.496 0.222824 222.496V214.806Z" fill="white" fill-opacity="0.1"/>
<path d="M0.222824 246.042C22.271 246.042 33.1854 254.241 44.107 262.437C53.9875 269.859 63.8645 277.271 83.41 277.271C102.955 277.271 112.825 269.849 122.706 262.437C133.627 254.238 144.542 246.042 166.597 246.042C188.652 246.042 199.567 254.241 210.488 262.437C220.362 269.859 230.239 277.271 249.784 277.271C269.33 277.271 279.207 269.849 289.08 262.437C300.002 254.238 310.923 246.042 332.971 246.042C355.027 246.042 365.941 254.241 376.863 262.437C386.743 269.852 396.62 277.271 416.159 277.271C435.704 277.271 445.581 269.856 455.462 262.437C466.383 254.238 477.298 246.042 499.346 246.042V253.725C479.808 253.725 469.931 261.148 460.05 268.563C449.128 276.762 438.214 284.958 416.159 284.958C394.111 284.958 383.189 276.758 372.267 268.563C362.394 261.141 352.517 253.725 332.971 253.725C313.426 253.725 303.556 261.148 293.676 268.563C282.754 276.762 271.84 284.958 249.784 284.958C227.729 284.958 216.815 276.758 205.893 268.563C196.02 261.141 186.143 253.725 166.597 253.725C147.052 253.725 137.175 261.148 127.301 268.563C116.38 276.762 105.458 284.958 83.41 284.958C61.3547 284.958 50.4403 276.758 39.5187 268.563C29.6382 261.141 19.7612 253.725 0.222824 253.725V246.042Z" fill="white" fill-opacity="0.1"/>
<path d="M0.222824 277.278C22.271 277.278 33.1854 285.477 44.107 293.673C53.9875 301.095 63.8645 308.51 83.41 308.51C102.955 308.51 112.825 301.088 122.706 293.673C133.627 285.474 144.542 277.278 166.597 277.278C188.652 277.278 199.567 285.477 210.488 293.673C220.362 301.095 230.239 308.51 249.784 308.51C269.33 308.51 279.207 301.088 289.08 293.673C300.002 285.474 310.923 277.278 332.971 277.278C355.027 277.278 365.941 285.477 376.863 293.673C386.743 301.095 396.62 308.51 416.159 308.51C435.704 308.51 445.581 301.088 455.462 293.673C466.383 285.474 477.298 277.278 499.346 277.278V284.968C479.808 284.968 469.931 292.39 460.05 299.802C449.128 308.008 438.214 316.204 416.159 316.204C394.111 316.204 383.189 307.998 372.267 299.802C362.394 292.387 352.517 284.968 332.971 284.968C313.426 284.968 303.556 292.39 293.676 299.802C282.754 308.001 271.84 316.204 249.784 316.204C227.729 316.204 216.815 308.005 205.893 299.802C196.02 292.387 186.143 284.968 166.597 284.968C147.052 284.968 137.175 292.39 127.301 299.802C116.38 308.001 105.458 316.204 83.41 316.204C61.3547 316.204 50.4403 308.005 39.5187 299.802C29.6382 292.387 19.7612 284.968 0.222824 284.968V277.278Z" fill="white" fill-opacity="0.1"/>
<path d="M0.222824 308.514C22.271 308.514 33.1854 316.714 44.107 324.909C53.9875 332.331 63.8645 339.747 83.41 339.747C102.955 339.747 112.825 332.324 122.706 324.909C133.627 316.71 144.542 308.514 166.597 308.514C188.652 308.514 199.567 316.714 210.488 324.909C220.362 332.331 230.239 339.747 249.784 339.747C269.33 339.747 279.207 332.324 289.08 324.909C300.002 316.71 310.923 308.514 332.971 308.514C355.027 308.514 365.941 316.714 376.863 324.909C386.743 332.331 396.62 339.747 416.159 339.747C435.704 339.747 445.581 332.324 455.462 324.909C466.383 316.71 477.298 308.514 499.346 308.514V316.205C479.808 316.205 469.931 323.62 460.05 331.038C449.128 339.238 438.214 347.433 416.159 347.433C394.111 347.433 383.189 339.234 372.267 331.038C362.394 323.616 352.517 316.205 332.971 316.205C313.426 316.205 303.556 323.62 293.676 331.038C282.754 339.238 271.84 347.433 249.784 347.433C227.729 347.433 216.815 339.234 205.893 331.038C196.02 323.616 186.143 316.205 166.597 316.205C147.052 316.205 137.175 323.62 127.301 331.038C116.38 339.238 105.458 347.433 83.41 347.433C61.3547 347.433 50.4403 339.234 39.5187 331.038C29.6382 323.616 19.7612 316.205 0.222824 316.205V308.514Z" fill="white" fill-opacity="0.1"/>
<path d="M0.222824 339.759C22.271 339.759 33.1854 347.958 44.107 356.154C53.9875 363.576 63.8645 370.988 83.41 370.988C102.955 370.988 112.825 363.573 122.706 356.154C133.627 347.955 144.542 339.759 166.597 339.759C188.652 339.759 199.567 347.958 210.488 356.154C220.362 363.576 230.239 370.988 249.784 370.988C269.33 370.988 279.207 363.573 289.08 356.154C300.002 347.955 310.923 339.759 332.971 339.759C355.027 339.759 365.941 347.958 376.863 356.154C386.743 363.576 396.62 370.988 416.159 370.988C435.704 370.988 445.581 363.573 455.462 356.154C466.383 347.955 477.298 339.759 499.346 339.759V347.443C479.808 347.443 469.931 354.865 460.05 362.28C449.128 370.479 438.214 378.675 416.159 378.675C394.111 378.675 383.189 370.476 372.267 362.28C362.394 354.858 352.517 347.443 332.971 347.443C313.426 347.443 303.556 354.865 293.676 362.28C282.754 370.479 271.84 378.675 249.784 378.675C227.729 378.675 216.815 370.476 205.893 362.28C196.02 354.858 186.143 347.443 166.597 347.443C147.052 347.443 137.175 354.865 127.301 362.28C116.38 370.479 105.458 378.675 83.41 378.675C61.3547 378.675 50.4403 370.476 39.5187 362.28C29.6382 354.858 19.7612 347.443 0.222824 347.443V339.759Z" fill="white" fill-opacity="0.1"/>
<path d="M0.222824 370.986C22.271 370.986 33.1854 379.193 44.107 387.389C53.9875 394.804 63.8645 402.222 83.41 402.222C102.955 402.222 112.825 394.8 122.706 387.389C133.627 379.189 144.542 370.986 166.597 370.986C188.652 370.986 199.567 379.193 210.488 387.389C220.362 394.804 230.239 402.222 249.784 402.222C269.33 402.222 279.207 394.8 289.08 387.389C300.002 379.189 310.923 370.986 332.971 370.986C355.027 370.986 365.941 379.193 376.863 387.389C386.743 394.804 396.62 402.222 416.159 402.222C435.704 402.222 445.581 394.8 455.462 387.389C466.383 379.189 477.298 370.986 499.346 370.986V378.677C479.808 378.677 469.931 386.099 460.05 393.514C449.128 401.713 438.214 409.909 416.159 409.909C394.111 409.909 383.189 401.71 372.267 393.514C362.394 386.092 352.517 378.677 332.971 378.677C313.426 378.677 303.556 386.099 293.676 393.514C282.754 401.713 271.84 409.909 249.784 409.909C227.729 409.909 216.815 401.71 205.893 393.514C196.02 386.092 186.143 378.677 166.597 378.677C147.052 378.677 137.175 386.099 127.301 393.514C116.38 401.713 105.458 409.909 83.41 409.909C61.3547 409.909 50.4403 401.71 39.5187 393.514C29.6382 386.092 19.7612 378.677 0.222824 378.677V370.986Z" fill="white" fill-opacity="0.1"/>
<path d="M0.222824 402.231C22.271 402.231 33.1854 410.431 44.107 418.627C53.9875 426.049 63.8645 433.464 83.41 433.464C102.955 433.464 112.825 426.042 122.706 418.627C133.627 410.427 144.542 402.231 166.597 402.231C188.652 402.231 199.567 410.431 210.488 418.627C220.362 426.049 230.239 433.464 249.784 433.464C269.33 433.464 279.207 426.042 289.08 418.627C300.002 410.427 310.923 402.231 332.971 402.231C355.027 402.231 365.941 410.431 376.863 418.627C386.743 426.049 396.62 433.464 416.159 433.464C435.704 433.464 445.581 426.042 455.462 418.627C466.383 410.427 477.298 402.231 499.346 402.231V409.922C479.808 409.922 469.931 417.344 460.05 424.755C449.128 432.955 438.214 441.151 416.159 441.151C394.111 441.151 383.189 432.951 372.267 424.755C362.394 417.34 352.517 409.922 332.971 409.922C313.426 409.922 303.556 417.344 293.676 424.755C282.754 432.955 271.84 441.151 249.784 441.151C227.729 441.151 216.815 432.951 205.893 424.755C196.02 417.34 186.143 409.922 166.597 409.922C147.052 409.922 137.175 417.344 127.301 424.755C116.38 432.955 105.458 441.151 83.41 441.151C61.3547 441.151 50.4403 432.951 39.5187 424.755C29.6382 417.34 19.7612 409.922 0.222824 409.922V402.231Z" fill="white" fill-opacity="0.1"/>
<path d="M0.222824 433.467C22.271 433.467 33.1854 441.667 44.107 449.863C53.9875 457.285 63.8645 464.7 83.41 464.7C102.955 464.7 112.825 457.278 122.706 449.863C133.627 441.663 144.542 433.467 166.597 433.467C188.652 433.467 199.567 441.667 210.488 449.863C220.362 457.285 230.239 464.7 249.784 464.7C269.33 464.7 279.207 457.278 289.08 449.863C300.002 441.663 310.923 433.467 332.971 433.467C355.027 433.467 365.941 441.667 376.863 449.863C386.743 457.285 396.62 464.7 416.159 464.7C435.704 464.7 445.581 457.278 455.462 449.863C466.383 441.663 477.298 433.467 499.346 433.467V441.151C479.808 441.151 469.931 448.573 460.05 455.988C449.128 464.187 438.214 472.383 416.159 472.383C394.111 472.383 383.189 464.184 372.267 455.988C362.394 448.566 352.517 441.151 332.971 441.151C313.426 441.151 303.556 448.573 293.676 455.988C282.754 464.187 271.84 472.383 249.784 472.383C227.729 472.383 216.815 464.184 205.893 455.988C196.02 448.566 186.143 441.151 166.597 441.151C147.052 441.151 137.175 448.573 127.301 455.988C116.38 464.187 105.458 472.383 83.41 472.383C61.3547 472.383 50.4403 464.184 39.5187 455.988C29.6382 448.566 19.7612 441.151 0.222824 441.151V433.467Z" fill="white" fill-opacity="0.1"/>
<path d="M0.222824 464.694C22.271 464.694 33.1854 472.894 44.107 481.09C53.9875 488.505 63.8645 495.923 83.41 495.923C102.955 495.923 112.825 488.501 122.706 481.09C133.627 472.89 144.542 464.694 166.597 464.694C188.652 464.694 199.567 472.894 210.488 481.09C220.362 488.505 230.239 495.923 249.784 495.923C269.33 495.923 279.207 488.501 289.08 481.09C300.002 472.89 310.923 464.694 332.971 464.694C355.027 464.694 365.941 472.894 376.863 481.09C386.743 488.505 396.62 495.923 416.159 495.923C435.704 495.923 445.581 488.501 455.462 481.09C466.383 472.89 477.298 464.694 499.346 464.694V472.378C479.808 472.378 469.931 479.8 460.05 487.215C453.797 491.914 447.534 496.613 439.185 499.765H393.153C384.798 496.61 378.541 491.91 372.282 487.215C362.408 479.793 352.531 472.378 332.986 472.378C313.44 472.378 303.57 479.8 293.69 487.215C287.43 491.914 281.174 496.613 272.818 499.765H226.792C218.437 496.61 212.18 491.91 205.921 487.215C196.047 479.793 186.17 472.378 166.625 472.378C147.079 472.378 137.202 479.8 127.329 487.215C121.069 491.914 114.806 496.613 106.457 499.765H60.4251C52.0695 496.61 45.8128 491.91 39.5606 487.215C29.68 479.793 19.803 472.378 0.264711 472.378V464.694H0.222824Z" fill="white" fill-opacity="0.1"/>
<path d="M439.162 0C432.934 2.35315 425.553 3.84525 416.143 3.84525C406.732 3.84525 399.344 2.35315 393.13 0H439.162ZM272.79 0C266.568 2.35315 259.187 3.84525 249.777 3.84525C240.36 3.84525 232.979 2.35315 226.765 0H272.79ZM106.426 0C100.205 2.35315 92.8164 3.84525 83.4135 3.84525C73.9964 3.84525 66.615 2.35315 60.3939 0H106.426Z" fill="white" fill-opacity="0.1"/>
<path d="M0.222824 495.93C9.6337 495.93 17.0143 497.423 23.2353 499.776H0.222824V495.93ZM143.574 499.776C149.802 497.423 157.184 495.93 166.594 495.93C176.004 495.93 183.392 497.423 189.606 499.776H143.574ZM309.947 499.776C316.168 497.423 323.556 495.93 332.959 495.93C342.376 495.93 349.758 497.423 355.979 499.776H309.947ZM476.31 499.776C482.539 497.423 489.92 495.93 499.323 495.93V499.776H476.31Z" fill="white" fill-opacity="0.1"/>
</g>
<defs>
<clipPath id="clip0_102_86">
<rect width="500" height="500" fill="white"/>
</clipPath>
</defs>
</svg>
